<svg version="1.1" id="Layer_1" xmlns="http://www.w3.org/2000/svg" xmlns:xlink="http://www.w3.org/1999/xlink" x="0px" y="0px"
	 width="100%" viewBox="0 0 225 225" enable-background="new 0 0 225 225" xml:space="preserve">
<path fill="#061A2E" opacity="1.000000" stroke="none" 
	d="
M102.000000,1.000001 
	C108.687645,1.000000 115.375290,1.000000 122.709793,1.379437 
	C136.981125,2.340483 149.586639,6.686804 161.950165,12.048743 
	C177.034927,18.590849 188.850067,29.473551 199.564087,41.395782 
	C210.855988,53.961060 218.239609,68.914734 222.269470,85.411209 
	C223.537399,90.601501 224.757828,95.803406 226.000000,101.000000 
	C226.000000,109.020897 226.000000,117.041801 225.638443,125.668449 
	C223.522705,134.021225 222.409851,141.982208 219.908340,149.479889 
	C205.663132,192.176666 167.726593,220.782272 125.702843,225.061340 
	C124.568947,225.327194 123.784477,225.663605 123.000000,226.000000 
	C116.978844,226.000000 110.957695,226.000000 104.336884,225.688385 
	C102.824821,225.584518 101.912407,225.792252 101.000000,226.000000 
	C100.555557,226.000000 100.111107,226.000000 99.210602,225.631393 
	C97.307205,224.891693 95.874069,224.448715 94.410500,224.159973 
	C50.956036,215.587036 21.785086,190.347137 6.919666,148.728302 
	C4.296549,141.384338 2.940942,133.587631 1.000000,126.000000 
	C1.000000,117.979103 1.000000,109.958199 1.372559,101.317642 
	C2.127854,98.408936 2.433272,96.103851 2.904743,93.833237 
	C12.328666,48.447414 39.355225,18.998495 83.481102,5.220253 
	C89.505913,3.339016 95.819901,2.383908 102.000000,1.000001 
M147.751099,100.207970 
	C149.783035,100.365341 151.814972,100.522705 154.316391,100.716431 
	C154.316391,93.773628 154.316391,87.540016 154.316391,80.814285 
	C160.506119,80.814285 166.229355,80.814285 171.853836,80.814285 
	C171.853836,78.678940 171.853836,77.054939 171.853836,74.950569 
	C165.977234,74.950569 160.243652,74.950569 154.043091,74.950569 
	C154.043091,68.070465 154.043091,61.658287 154.043091,55.060814 
	C151.562836,55.060814 149.573303,55.060814 146.818527,55.487080 
	C146.544647,60.339134 146.087616,65.190315 146.064484,70.043564 
	C146.050232,73.030998 145.021820,74.046974 142.040497,74.069443 
	C138.026215,74.099701 134.015808,74.646324 129.723038,75.595535 
	C129.815628,77.403008 129.908218,79.210472 130.610260,81.584877 
	C134.066437,81.723747 137.540604,82.145195 140.974014,81.926552 
	C144.850113,81.679726 146.221313,82.930389 146.112366,86.942863 
	C145.994888,91.269653 146.765717,95.620560 147.751099,100.207970 
M79.228630,55.479969 
	C77.311386,55.362709 75.394142,55.245449 73.021507,55.100338 
	C73.021507,60.482117 72.862015,65.437767 73.076492,70.377167 
	C73.224220,73.779091 72.147408,75.228134 68.567474,75.031502 
	C64.131012,74.787834 59.670990,74.973152 55.064545,74.973152 
	C55.064545,77.214981 55.064545,79.018913 55.582481,81.476044 
	C57.865368,81.651115 60.147427,81.963646 62.431282,81.977303 
	C71.998512,82.034546 71.926949,82.002617 72.041283,91.309349 
	C72.076836,94.202866 72.616539,97.090179 73.516296,100.468079 
	C75.443291,100.468079 77.370285,100.468079 79.681793,100.468079 
	C79.681793,95.095360 79.839523,90.303452 79.629486,85.527725 
	C79.474876,82.012100 80.893417,80.773903 84.300209,80.917458 
	C88.574707,81.097580 92.862564,80.960831 97.801468,80.960831 
	C97.486519,78.620972 97.236664,76.764748 96.356903,74.372116 
	C92.894447,74.247169 89.410713,73.827019 85.975113,74.074661 
	C81.997124,74.361397 80.810707,72.913582 80.892532,68.997978 
	C80.983231,64.657455 80.233757,60.299377 79.228630,55.479969 
M147.342499,170.563965 
	C149.480835,170.563965 151.619186,170.563965 154.158234,170.563965 
	C154.158234,164.063828 154.158234,157.800308 154.158234,151.027313 
	C160.294174,151.027313 166.037506,151.027313 171.763885,151.027313 
	C171.763885,148.762497 171.763885,147.023956 171.763885,144.805145 
	C165.793259,144.805145 160.063660,144.805145 153.937469,144.805145 
	C153.937469,138.073074 153.937469,131.823196 153.937469,125.611725 
	C151.466156,125.611725 149.431107,125.611725 147.272339,125.611725 
	C147.272339,130.941025 147.168213,135.931519 147.310898,140.914948 
	C147.398224,143.965012 146.100342,145.088226 143.155197,145.012222 
	C138.727921,144.897995 134.295517,144.982483 129.615356,144.982483 
	C129.770554,147.413864 129.885483,149.214569 130.609390,151.582870 
	C134.058609,151.722198 137.524063,152.133194 140.952713,151.928345 
	C144.768814,151.700348 146.254837,152.844620 146.108337,156.904694 
	C145.951492,161.252686 146.658539,165.631851 147.342499,170.563965 
M97.511375,150.485107 
	C97.511375,148.736588 97.511375,146.988068 97.511375,144.982040 
	C92.704231,144.982040 88.389641,144.846771 84.088127,145.025818 
	C80.780075,145.163513 79.686775,143.785416 79.805069,140.590698 
	C79.987968,135.651825 79.853294,130.701202 79.853294,125.581833 
	C77.309662,125.581833 75.276817,125.581833 72.984291,125.581833 
	C72.984291,130.530411 72.695541,135.194824 73.067619,139.805893 
	C73.421249,144.188278 71.640732,145.332642 67.610817,145.046814 
	C63.503296,144.755478 59.359016,144.982376 55.048691,144.982376 
	C55.048691,147.228653 55.048691,149.037704 55.581715,151.489670 
	C57.864117,151.660599 60.145737,151.965729 62.429066,151.979065 
	C71.998558,152.034973 71.928917,152.003799 72.040123,161.303864 
	C72.074760,164.200790 72.599091,167.091843 73.222725,170.639633 
	C75.297745,170.731873 77.372765,170.824112 80.204041,170.496124 
	C80.471008,165.743698 80.960869,160.989716 80.928055,156.239365 
	C80.905472,152.969955 82.022247,151.894485 85.266945,151.920456 
	C89.171471,151.951706 93.080780,151.383774 97.511375,150.485107 
M117.663559,93.658981 
	C117.663559,91.575111 117.663559,89.491241 117.663559,87.525871 
	C114.699524,87.525871 112.412140,87.525871 109.637497,87.525871 
	C109.637497,93.196663 109.452774,98.666901 109.701805,104.117332 
	C109.870567,107.810913 108.491455,109.236320 104.853142,109.122681 
	C99.920570,108.968613 94.979576,109.084343 90.219955,109.084343 
	C90.219955,112.124519 90.219955,114.520874 90.219955,117.243187 
	C96.831726,117.243187 103.105713,117.243187 109.827454,117.243187 
	C109.827454,124.656815 109.827454,131.728928 109.827454,138.806549 
	C112.584915,138.806549 114.873520,138.806549 117.664513,138.806549 
	C117.664513,131.567932 117.664513,124.497940 117.664513,117.051247 
	C124.416763,117.051247 130.674255,117.051247 137.055176,117.051247 
	C137.055176,114.227715 137.055176,111.796638 137.055176,109.431984 
	C136.499405,109.273567 136.189163,109.109642 135.877991,109.107895 
	C132.048035,109.086418 128.217972,109.087547 124.387924,109.084999 
	C117.669540,109.080521 117.668839,109.081146 117.663887,102.612190 
	C117.661850,99.947800 117.663536,97.283401 117.663559,93.658981 
M185.664459,115.312981 
	C185.664459,113.758461 185.664459,112.203934 185.664459,110.353622 
	C182.877533,110.353622 180.712692,110.173683 178.589172,110.393250 
	C174.839371,110.780975 173.444992,109.235390 173.748138,105.543495 
	C173.974625,102.785187 173.792816,99.993355 173.792816,97.218300 
	C171.486542,97.218300 169.754639,97.218300 167.704254,97.218300 
	C167.704254,101.619408 167.704254,105.728500 167.704254,110.300781 
	C163.669128,110.300781 159.932236,110.300781 156.132233,110.300781 
	C156.132233,112.474472 156.132233,114.171509 156.132233,116.118530 
	C160.123413,116.118530 163.743011,116.118530 168.000763,116.118530 
	C168.000763,121.086052 168.000763,125.810539 168.000763,130.521378 
	C172.068207,130.907959 173.812317,129.761642 173.855164,125.933975 
	C173.964645,116.152229 174.088959,116.154655 183.966965,115.965309 
	C184.297546,115.958969 184.626831,115.886383 185.664459,115.312981 
M128.793961,167.963699 
	C124.946922,167.342880 121.099876,166.722046 116.761932,166.021988 
	C116.761932,161.950012 116.761932,157.690048 116.761932,153.264648 
	C114.571617,153.264648 112.856590,153.264648 110.760361,153.264648 
	C110.760361,157.771454 110.760361,162.032547 110.760361,166.743622 
	C106.632339,166.743622 102.881866,166.743622 99.109978,166.743622 
	C99.109978,168.752762 99.109978,170.286530 99.109978,172.197250 
	C103.164238,172.197250 106.913330,172.197250 111.153214,172.197250 
	C111.153214,177.303391 111.153214,182.024567 111.153214,186.614639 
	C118.627518,187.928650 116.619904,182.725311 116.704697,179.389008 
	C116.891235,172.049393 116.762733,172.045959 124.013313,172.020615 
	C124.843544,172.017715 125.958992,172.355438 126.443993,171.945618 
	C127.420380,171.120605 128.053406,169.889221 128.793961,167.963699 
M64.406548,115.176102 
	C66.039177,115.103149 67.671806,115.030197 69.275223,114.958549 
	C69.474686,110.998634 69.474686,110.998634 64.457512,110.988426 
	C57.821358,110.974930 57.821075,110.974930 57.817596,104.491394 
	C57.816536,102.516953 57.817440,100.542511 57.817440,98.270210 
	C56.138187,98.270210 54.784714,98.270210 53.585163,98.270210 
	C53.341476,98.664337 53.184608,98.801788 53.177429,98.946655 
	C52.997559,102.577911 54.190567,107.499657 52.297779,109.491394 
	C50.267643,111.627647 45.338116,111.008530 41.422173,111.631950 
	C41.422173,112.597664 41.422173,113.808594 41.422173,115.468452 
	C45.412640,115.468452 49.143005,115.468452 52.855583,115.468452 
	C53.105511,120.415993 53.332836,124.916130 53.604221,130.288422 
	C61.011192,126.218819 55.743324,119.661201 58.729626,115.182091 
	C60.188728,115.182091 61.836697,115.182091 64.406548,115.176102 
M111.299225,43.015152 
	C111.299225,46.797455 111.299225,50.579758 111.299225,54.969627 
	C107.007523,54.969627 103.295784,54.969627 99.184120,54.969627 
	C99.597748,57.049118 99.876045,58.448238 100.201523,60.084579 
	C103.956856,60.084579 107.409866,60.084579 111.298820,60.084579 
	C111.298820,63.000305 111.268677,65.616615 111.305763,68.231972 
	C111.363876,72.330307 111.383118,72.330032 116.097557,71.510391 
	C116.097557,67.485565 116.097557,63.383369 116.097557,58.963982 
	C118.923187,58.963982 121.389267,58.986057 123.854797,58.958927 
	C127.776558,58.915779 127.776405,58.901901 127.343750,54.646324 
	C123.656662,54.646324 119.911293,54.646324 115.765793,54.646324 
	C115.765793,49.896812 115.765793,45.630947 115.765793,40.718685 
	C113.917732,41.307667 112.636360,41.716045 111.299225,43.015152 
z"/>
<path fill="#FDFDFD" opacity="1.000000" stroke="none" 
	d="
M226.000000,100.531342 
	C224.757828,95.803406 223.537399,90.601501 222.269470,85.411209 
	C218.239609,68.914734 210.855988,53.961060 199.564087,41.395782 
	C188.850067,29.473551 177.034927,18.590849 161.950165,12.048743 
	C149.586639,6.686804 136.981125,2.340483 123.178322,1.379437 
	C157.259186,1.000000 191.518372,1.000000 226.000000,1.000000 
	C226.000000,34.020561 226.000000,67.041626 226.000000,100.531342 
z"/>
<path fill="#FDFDFD" opacity="1.000000" stroke="none" 
	d="
M126.052261,225.131866 
	C167.726593,220.782272 205.663132,192.176666 219.908340,149.479889 
	C222.409851,141.982208 223.522705,134.021225 225.638443,126.137100 
	C226.000000,159.260269 226.000000,192.520523 226.000000,226.000000 
	C192.979431,226.000000 159.958374,226.000000 126.460281,225.781677 
	C125.983253,225.563354 126.052261,225.131866 126.052261,225.131866 
z"/>
<path fill="#FDFDFE" opacity="1.000000" stroke="none" 
	d="
M101.531342,1.000001 
	C95.819901,2.383908 89.505913,3.339016 83.481102,5.220253 
	C39.355225,18.998495 12.328666,48.447414 2.904743,93.833237 
	C2.433272,96.103851 2.127854,98.408936 1.372559,100.848984 
	C1.000000,67.739365 1.000000,34.478733 1.000000,1.000000 
	C34.353912,1.000000 67.708298,1.000000 101.531342,1.000001 
z"/>
<path fill="#FDFDFE" opacity="1.000000" stroke="none" 
	d="
M1.000000,126.468658 
	C2.940942,133.587631 4.296549,141.384338 6.919666,148.728302 
	C21.785086,190.347137 50.956036,215.587036 94.410500,224.159973 
	C95.874069,224.448715 97.307205,224.891693 98.877266,225.631393 
	C66.405663,226.000000 33.811325,226.000000 1.000000,226.000000 
	C1.000000,192.979416 1.000000,159.958374 1.000000,126.468658 
z"/>
<path fill="#B8BBBF" opacity="1.000000" stroke="none" 
	d="
M101.375000,226.000000 
	C101.912407,225.792252 102.824821,225.584518 103.868614,225.688385 
	C103.250000,226.000000 102.500000,226.000000 101.375000,226.000000 
z"/>
<path fill="#B8BBBF" opacity="1.000000" stroke="none" 
	d="
M125.702843,225.061340 
	C126.052261,225.131866 125.983253,225.563354 125.991623,225.781677 
	C125.250000,226.000000 124.500000,226.000000 123.375000,226.000000 
	C123.784477,225.663605 124.568947,225.327194 125.702843,225.061340 
z"/>
<path fill="#F5F6F6" opacity="1.000000" stroke="none" 
	d="
M117.663544,94.138992 
	C117.663536,97.283401 117.661850,99.947800 117.663887,102.612190 
	C117.668839,109.081146 117.669540,109.080521 124.387924,109.084999 
	C128.217972,109.087547 132.048035,109.086418 135.877991,109.107895 
	C136.189163,109.109642 136.499405,109.273567 137.055176,109.431984 
	C137.055176,111.796638 137.055176,114.227715 137.055176,117.051247 
	C130.674255,117.051247 124.416763,117.051247 117.664513,117.051247 
	C117.664513,124.497940 117.664513,131.567932 117.664513,138.806549 
	C114.873520,138.806549 112.584915,138.806549 109.827454,138.806549 
	C109.827454,131.728928 109.827454,124.656815 109.827454,117.243187 
	C103.105713,117.243187 96.831726,117.243187 90.219955,117.243187 
	C90.219955,114.520874 90.219955,112.124519 90.219955,109.084343 
	C94.979576,109.084343 99.920570,108.968613 104.853142,109.122681 
	C108.491455,109.236320 109.870567,107.810913 109.701805,104.117332 
	C109.452774,98.666901 109.637497,93.196663 109.637497,87.525871 
	C112.412140,87.525871 114.699524,87.525871 117.663559,87.525871 
	C117.663559,89.491241 117.663559,91.575111 117.663544,94.138992 
z"/>
<path fill="#F6F6F7" opacity="1.000000" stroke="none" 
	d="
M55.048691,150.846741 
	C55.048691,149.037704 55.048691,147.228653 55.048691,144.982376 
	C59.359016,144.982376 63.503296,144.755478 67.610817,145.046814 
	C71.640732,145.332642 73.421249,144.188278 73.067619,139.805893 
	C72.695541,135.194824 72.984291,130.530411 72.984291,125.581833 
	C75.276817,125.581833 77.309662,125.581833 79.853294,125.581833 
	C79.853294,130.701202 79.987968,135.651825 79.805069,140.590698 
	C79.686775,143.785416 80.780075,145.163513 84.088127,145.025818 
	C88.389641,144.846771 92.704231,144.982040 97.511375,144.982040 
	C97.511375,146.988068 97.511375,148.736588 96.782623,150.754486 
	C90.677467,151.023880 85.301064,151.023880 79.447784,151.023880 
	C79.447784,158.090881 79.447784,164.503616 79.447784,170.916351 
	C77.372765,170.824112 75.297745,170.731873 73.098541,169.846130 
	C72.974350,163.120438 72.974350,157.188248 72.974350,150.846741 
	C66.647881,150.846741 60.848286,150.846741 55.048691,150.846741 
z"/>
<path fill="#F6F6F7" opacity="1.000000" stroke="none" 
	d="
M130.000412,151.015274 
	C129.885483,149.214569 129.770554,147.413864 129.615356,144.982483 
	C134.295517,144.982483 138.727921,144.897995 143.155197,145.012222 
	C146.100342,145.088226 147.398224,143.965012 147.310898,140.914948 
	C147.168213,135.931519 147.272339,130.941025 147.272339,125.611725 
	C149.431107,125.611725 151.466156,125.611725 153.937469,125.611725 
	C153.937469,131.823196 153.937469,138.073074 153.937469,144.805145 
	C160.063660,144.805145 165.793259,144.805145 171.763885,144.805145 
	C171.763885,147.023956 171.763885,148.762497 171.763885,151.027313 
	C166.037506,151.027313 160.294174,151.027313 154.158234,151.027313 
	C154.158234,157.800308 154.158234,164.063828 154.158234,170.563965 
	C151.619186,170.563965 149.480835,170.563965 147.273407,169.823151 
	C147.204315,163.175568 147.204315,157.268829 147.204315,151.015274 
	C141.199860,151.015274 135.600143,151.015274 130.000412,151.015274 
z"/>
<path fill="#F0F1F2" opacity="1.000000" stroke="none" 
	d="
M96.986816,74.908524 
	C97.236664,76.764748 97.486519,78.620972 97.801468,80.960831 
	C92.862564,80.960831 88.574707,81.097580 84.300209,80.917458 
	C80.893417,80.773903 79.474876,82.012100 79.629486,85.527725 
	C79.839523,90.303452 79.681793,95.095360 79.681793,100.468079 
	C77.370285,100.468079 75.443291,100.468079 73.258743,99.758347 
	C73.001198,93.044250 73.001198,87.039871 73.001198,80.822853 
	C66.561172,80.822853 60.812859,80.822853 55.064545,80.822853 
	C55.064545,79.018913 55.064545,77.214981 55.064545,74.973152 
	C59.670990,74.973152 64.131012,74.787834 68.567474,75.031502 
	C72.147408,75.228134 73.224220,73.779091 73.076492,70.377167 
	C72.862015,65.437767 73.021507,60.482117 73.021507,55.100338 
	C75.394142,55.245449 77.311386,55.362709 79.480354,56.183754 
	C79.732079,62.804482 79.732079,68.721420 79.732079,74.908524 
	C85.757988,74.908524 91.372406,74.908524 96.986816,74.908524 
z"/>
<path fill="#F5F5F6" opacity="1.000000" stroke="none" 
	d="
M147.583771,55.060814 
	C149.573303,55.060814 151.562836,55.060814 154.043091,55.060814 
	C154.043091,61.658287 154.043091,68.070465 154.043091,74.950569 
	C160.243652,74.950569 165.977234,74.950569 171.853836,74.950569 
	C171.853836,77.054939 171.853836,78.678940 171.853836,80.814285 
	C166.229355,80.814285 160.506119,80.814285 154.316391,80.814285 
	C154.316391,87.540016 154.316391,93.773628 154.316391,100.716431 
	C151.814972,100.522705 149.783035,100.365341 147.485748,99.619507 
	C147.220398,93.129654 147.220398,87.228264 147.220398,81.017944 
	C141.197159,81.017944 135.598984,81.017944 130.000793,81.017944 
	C129.908218,79.210472 129.815628,77.403008 130.331635,75.287537 
	C136.350098,74.979530 141.759964,74.979530 147.240997,74.979530 
	C147.240997,71.241791 147.196457,68.098114 147.253235,64.956261 
	C147.312851,61.656864 147.469513,58.359222 147.583771,55.060814 
z"/>
<path fill="#EBECED" opacity="1.000000" stroke="none" 
	d="
M185.310593,115.578827 
	C184.626831,115.886383 184.297546,115.958969 183.966965,115.965309 
	C174.088959,116.154655 173.964645,116.152229 173.855164,125.933975 
	C173.812317,129.761642 172.068207,130.907959 168.000763,130.521378 
	C168.000763,125.810539 168.000763,121.086052 168.000763,116.118530 
	C163.743011,116.118530 160.123413,116.118530 156.132233,116.118530 
	C156.132233,114.171509 156.132233,112.474472 156.132233,110.300781 
	C159.932236,110.300781 163.669128,110.300781 167.704254,110.300781 
	C167.704254,105.728500 167.704254,101.619408 167.704254,97.218300 
	C169.754639,97.218300 171.486542,97.218300 173.792816,97.218300 
	C173.792816,99.993355 173.974625,102.785187 173.748138,105.543495 
	C173.444992,109.235390 174.839371,110.780975 178.589172,110.393250 
	C180.712692,110.173683 182.877533,110.353622 185.664459,110.353622 
	C185.664459,112.203934 185.664459,113.758461 185.310593,115.578827 
z"/>
<path fill="#F4F5F5" opacity="1.000000" stroke="none" 
	d="
M128.811035,168.394608 
	C128.053406,169.889221 127.420380,171.120605 126.443993,171.945618 
	C125.958992,172.355438 124.843544,172.017715 124.013313,172.020615 
	C116.762733,172.045959 116.891235,172.049393 116.704697,179.389008 
	C116.619904,182.725311 118.627518,187.928650 111.153214,186.614639 
	C111.153214,182.024567 111.153214,177.303391 111.153214,172.197250 
	C106.913330,172.197250 103.164238,172.197250 99.109978,172.197250 
	C99.109978,170.286530 99.109978,168.752762 99.109978,166.743622 
	C102.881866,166.743622 106.632339,166.743622 110.760361,166.743622 
	C110.760361,162.032547 110.760361,157.771454 110.760361,153.264648 
	C112.856590,153.264648 114.571617,153.264648 116.761932,153.264648 
	C116.761932,157.690048 116.761932,161.950012 116.761932,166.021988 
	C121.099876,166.722046 124.946922,167.342880 128.811035,168.394608 
z"/>
<path fill="#EAEBEC" opacity="1.000000" stroke="none" 
	d="
M63.945606,115.179092 
	C61.836697,115.182091 60.188728,115.182091 58.729626,115.182091 
	C55.743324,119.661201 61.011192,126.218819 53.604221,130.288422 
	C53.332836,124.916130 53.105511,120.415993 52.855583,115.468452 
	C49.143005,115.468452 45.412640,115.468452 41.422173,115.468452 
	C41.422173,113.808594 41.422173,112.597664 41.422173,111.631950 
	C45.338116,111.008530 50.267643,111.627647 52.297779,109.491394 
	C54.190567,107.499657 52.997559,102.577911 53.177429,98.946655 
	C53.184608,98.801788 53.341476,98.664337 53.585163,98.270210 
	C54.784714,98.270210 56.138187,98.270210 57.817440,98.270210 
	C57.817440,100.542511 57.816536,102.516953 57.817596,104.491394 
	C57.821075,110.974930 57.821358,110.974930 64.457512,110.988426 
	C69.474686,110.998634 69.474686,110.998634 69.275223,114.958549 
	C67.671806,115.030197 66.039177,115.103149 63.945606,115.179092 
z"/>
<path fill="#EBECED" opacity="1.000000" stroke="none" 
	d="
M111.327103,42.569786 
	C112.636360,41.716045 113.917732,41.307667 115.765793,40.718685 
	C115.765793,45.630947 115.765793,49.896812 115.765793,54.646324 
	C119.911293,54.646324 123.656662,54.646324 127.343750,54.646324 
	C127.776405,58.901901 127.776558,58.915779 123.854797,58.958927 
	C121.389267,58.986057 118.923187,58.963982 116.097557,58.963982 
	C116.097557,63.383369 116.097557,67.485565 116.097557,71.510391 
	C111.383118,72.330032 111.363876,72.330307 111.305763,68.231972 
	C111.268677,65.616615 111.298820,63.000305 111.298820,60.084579 
	C107.409866,60.084579 103.956856,60.084579 100.201523,60.084579 
	C99.876045,58.448238 99.597748,57.049118 99.184120,54.969627 
	C103.295784,54.969627 107.007523,54.969627 111.299225,54.969627 
	C111.299225,50.579758 111.299225,46.797455 111.327103,42.569786 
z"/>
<path fill="#000009" opacity="1.000000" stroke="none" 
	d="
M55.323513,81.149445 
	C60.812859,80.822853 66.561172,80.822853 73.001198,80.822853 
	C73.001198,87.039871 73.001198,93.044250 72.963318,99.514481 
	C72.616539,97.090179 72.076836,94.202866 72.041283,91.309349 
	C71.926949,82.002617 71.998512,82.034546 62.431282,81.977303 
	C60.147427,81.963646 57.865368,81.651115 55.323513,81.149445 
z"/>
<path fill="#00001A" opacity="1.000000" stroke="none" 
	d="
M147.201141,55.273949 
	C147.469513,58.359222 147.312851,61.656864 147.253235,64.956261 
	C147.196457,68.098114 147.240997,71.241791 147.240997,74.979530 
	C141.759964,74.979530 136.350098,74.979530 130.471985,74.975433 
	C134.015808,74.646324 138.026215,74.099701 142.040497,74.069443 
	C145.021820,74.046974 146.050232,73.030998 146.064484,70.043564 
	C146.087616,65.190315 146.544647,60.339134 147.201141,55.273949 
z"/>
<path fill="#00001E" opacity="1.000000" stroke="none" 
	d="
M55.315201,151.168213 
	C60.848286,150.846741 66.647881,150.846741 72.974350,150.846741 
	C72.974350,157.188248 72.974350,163.120438 72.936798,169.519119 
	C72.599091,167.091843 72.074760,164.200790 72.040123,161.303864 
	C71.928917,152.003799 71.998558,152.034973 62.429066,151.979065 
	C60.145737,151.965729 57.864117,151.660599 55.315201,151.168213 
z"/>
<path fill="#000019" opacity="1.000000" stroke="none" 
	d="
M79.825912,170.706238 
	C79.447784,164.503616 79.447784,158.090881 79.447784,151.023880 
	C85.301064,151.023880 90.677467,151.023880 96.520943,151.049561 
	C93.080780,151.383774 89.171471,151.951706 85.266945,151.920456 
	C82.022247,151.894485 80.905472,152.969955 80.928055,156.239365 
	C80.960869,160.989716 80.471008,165.743698 79.825912,170.706238 
z"/>
<path fill="#00001A" opacity="1.000000" stroke="none" 
	d="
M130.305527,81.301407 
	C135.598984,81.017944 141.197159,81.017944 147.220398,81.017944 
	C147.220398,87.228264 147.220398,93.129654 147.184723,99.495995 
	C146.765717,95.620560 145.994888,91.269653 146.112366,86.942863 
	C146.221313,82.930389 144.850113,81.679726 140.974014,81.926552 
	C137.540604,82.145195 134.066437,81.723747 130.305527,81.301407 
z"/>
<path fill="#00011C" opacity="1.000000" stroke="none" 
	d="
M96.671860,74.640320 
	C91.372406,74.908524 85.757988,74.908524 79.732079,74.908524 
	C79.732079,68.721420 79.732079,62.804482 79.791107,56.418243 
	C80.233757,60.299377 80.983231,64.657455 80.892532,68.997978 
	C80.810707,72.913582 81.997124,74.361397 85.975113,74.074661 
	C89.410713,73.827019 92.894447,74.247169 96.671860,74.640320 
z"/>
<path fill="#00001B" opacity="1.000000" stroke="none" 
	d="
M130.304901,151.299072 
	C135.600143,151.015274 141.199860,151.015274 147.204315,151.015274 
	C147.204315,157.268829 147.204315,163.175568 147.096420,169.539871 
	C146.658539,165.631851 145.951492,161.252686 146.108337,156.904694 
	C146.254837,152.844620 144.768814,151.700348 140.952713,151.928345 
	C137.524063,152.133194 134.058609,151.722198 130.304901,151.299072 
z"/>
</svg>